<svg id="fe80fb2b-bcaf-407e-919b-306adc32f78b" data-name="Layer 1" xmlns="http://www.w3.org/2000/svg" viewBox="0 0 1032 741.75278"><title>profile</title><path d="M185.32419,400.757S176,398,174,401s2.72669,24.7477,2.72669,24.7477l20.54589,1.24859-7.17022-18.10653Z" transform="translate(-84.5 -79.12639)" fill="#000"/><path d="M113.44417,579.34709s18.69466,41.04232,4.29762,39.753-19.98395-39.753-19.98395-39.753Z" transform="translate(-84.5 -79.12639)" fill="#7D4C39"/><path d="M235.71128,575.07127s-8.20129,44.34751,5.45523,39.61078,9.76437-43.40874,9.76437-43.40874Z" transform="translate(-84.5 -79.12639)" fill="#7D4C39"/><path d="M181.34664,390.46647s-.21488,20.6286,7.73573,21.703-4.51251,12.03335-4.51251,12.03335l-14.18216,2.79346L149.974,425.49212l-9.025-11.60359s15.90121-7.52084,9.025-30.9429Z" transform="translate(-84.5 -79.12639)" fill="#7D4C39"/><path d="M181.34664,390.46647s-.21488,20.6286,7.73573,21.703-4.51251,12.03335-4.51251,12.03335l-14.18216,2.79346L149.974,425.49212l-9.025-11.60359s15.90121-7.52084,9.025-30.9429Z" transform="translate(-84.5 -79.12639)" opacity="0.1"/><path d="M217.87645,564.95005s10.09942,21.703,2.14881,89.82036c0,0,2.3637,24.0667.42977,28.5792s-17.83515,65.75367-17.83515,65.75367-20.41371,4.5125-23.20717-9.025c0,0,2.79346-19.33931,2.57857-22.34765s4.51251-35.88516,4.51251-35.88516l-9.66966-63.60485-7.306,57.37329s0,16.54586-2.36369,20.19884,0,77.14236,0,77.14236,6.66132,11.17383-3.4381,11.38871-19.12443-.21488-19.984-7.306-1.28929-14.18216-3.4381-18.47979-4.94227-53.50543-4.29762-70.69593-14.18216-105.50669-9.45478-114.74659S217.87645,564.95005,217.87645,564.95005Z" transform="translate(-84.5 -79.12639)" fill="#000"/><circle cx="85.8877" cy="293.29006" r="25.78575" fill="#7D4C39"/><path d="M144.60195,414.31829s15.68633,11.60359,38.46374,2.3637c0,0,7.52084-3.653,6.8762-9.2399s15.68633,44.91018,15.68633,44.91018l16.54586,87.88643-.85953,35.88517s-7.306-3.653-30.08337,4.51251-59.95187-9.2399-59.95187-9.2399l1.28929-92.18405,1.28928-53.72031,3.4381-11.81847S139.015,410.45043,144.60195,414.31829Z" transform="translate(-84.5 -79.12639)" fill="#f2f2f2"/><path d="M182.06324,399.89323s3.79591-.61662,7.44889,5.18517,12.24823,9.45477,12.24823,9.45477,20.84348,1.28929,23.85182,12.46312,10.52918,26.43039,14.18216,54.57983,10.95894,73.05963,12.03335,76.71261-1.50417,14.8268,1.50417,18.2649-21.27325,3.4381-21.27325,3.4381-2.14881-17.62026-3.653-17.62026-1.0744,11.81847.42977,20.41372-10.95895,0-10.95895,0-9.66965-39.32327-18.90955-74.77867S184.355,452.99692,186.074,445.04631s6.44644-30.728,3.00834-32.87683S182.06324,399.89323,182.06324,399.89323Z" transform="translate(-84.5 -79.12639)" fill="#000"/><path d="M151.07551,399.87428s-5.614,3.05531-19.7962,13.15473-23.85182,17.83514-23.85182,17.83514-5.58691,4.29762-9.025,29.86849S87.22865,552.48693,90.237,560.8673s4.08275,13.32264,3.00834,18.26491,22.56253,4.72739,22.99229,3.653-.64464-20.6286.42977-21.05836,6.87619,11.60359,7.9506,21.703,13.53752,18.05,16.331,18.05,17.1905-58.23282,17.40538-97.98585-4.72739-73.2745-8.38037-78.00189S151.07551,399.87428,151.07551,399.87428Z" transform="translate(-84.5 -79.12639)" fill="#000"/><path d="M188.86748,751.03721s1.71905-4.72739,7.73573-3.22322,10.09942-3.86786,10.09942-3.86786,3.22322-.42977,1.0744,3.653-3.86786,6.8762-3.86786,6.8762,12.89288,29.43873,4.51251,36.52981-18.05,2.79346-18.05,2.79346-9.45477-6.66132-9.025-24.28159c0,0-.42976-5.58691-5.58691-14.61192s-9.025-22.77741-2.79346-25.356,7.83546-2.67436,7.83546-2.67436-2.916,13.33721,4.61624,17.99776Z" transform="translate(-84.5 -79.12639)" fill="#3f3d56"/><path d="M148.89957,784.3438s-5.15715-9.66966,3.4381-10.74406,17.83515-1.71905,17.40538,2.79345-1.50417,11.38871-1.50417,11.38871l1.50417,4.94227s.42977,12.24823,1.93393,13.7524,9.66966,14.397-7.73572,14.397-22.56253-1.93393-21.05836-6.01667,1.93393-24.28158,1.93393-24.28158Z" transform="translate(-84.5 -79.12639)" fill="#3f3d56"/><path d="M162.22221,351.78785s12.03335,3.22322,18.26491,4.51251,5.58691-2.3637,5.58691-2.3637,8.16549,1.07441,7.73572.21488,3.4381-5.372-1.0744-10.52918-3.22322-9.025-3.22322-9.025h-3.86786l-1.07441-1.50417h-6.01668s-4.5125-1.71905-16.331,0-27.93456,2.14881-29.22385,9.2399-7.95061,15.90121-5.58691,19.98395,15.90121,20.84348,17.1905,27.93456,7.30933,8.66659,7.09277,4.22585-6.23325-19.91218-1.0761-20.55682S164.5859,360.16822,162.22221,351.78785Z" transform="translate(-84.5 -79.12639)" fill=""/></svg>